%TF.GenerationSoftware,KiCad,Pcbnew,(5.1.12)-1*%
%TF.CreationDate,2022-08-31T11:13:05+01:00*%
%TF.ProjectId,SENS_PCB,53454e53-5f50-4434-922e-6b696361645f,rev?*%
%TF.SameCoordinates,Original*%
%TF.FileFunction,Legend,Top*%
%TF.FilePolarity,Positive*%
%FSLAX46Y46*%
G04 Gerber Fmt 4.6, Leading zero omitted, Abs format (unit mm)*
G04 Created by KiCad (PCBNEW (5.1.12)-1) date 2022-08-31 11:13:05*
%MOMM*%
%LPD*%
G01*
G04 APERTURE LIST*
%ADD10C,0.120000*%
%ADD11C,0.150000*%
%ADD12C,0.125000*%
G04 APERTURE END LIST*
D10*
%TO.C,J1*%
X146810000Y-107180000D02*
X146810000Y-105850000D01*
X148140000Y-107180000D02*
X146810000Y-107180000D01*
X149410000Y-107180000D02*
X149410000Y-104520000D01*
X149410000Y-104520000D02*
X157090000Y-104520000D01*
X149410000Y-107180000D02*
X157090000Y-107180000D01*
X157090000Y-107180000D02*
X157090000Y-104520000D01*
%TO.C,U1*%
X150000000Y-100000000D02*
X154000000Y-100000000D01*
X154000000Y-100000000D02*
X154000000Y-104000000D01*
X154000000Y-104000000D02*
X150000000Y-104000000D01*
X150000000Y-104000000D02*
X150000000Y-100000000D01*
X152000000Y-102000000D02*
X150000000Y-102000000D01*
X152000000Y-100000000D02*
X152000000Y-102000000D01*
%TO.C,J1*%
D11*
X147912380Y-101673333D02*
X148626666Y-101673333D01*
X148769523Y-101720952D01*
X148864761Y-101816190D01*
X148912380Y-101959047D01*
X148912380Y-102054285D01*
X148912380Y-100673333D02*
X148912380Y-101244761D01*
X148912380Y-100959047D02*
X147912380Y-100959047D01*
X148055238Y-101054285D01*
X148150476Y-101149523D01*
X148198095Y-101244761D01*
%TO.C,U1*%
X147628095Y-102382380D02*
X147628095Y-103191904D01*
X147675714Y-103287142D01*
X147723333Y-103334761D01*
X147818571Y-103382380D01*
X148009047Y-103382380D01*
X148104285Y-103334761D01*
X148151904Y-103287142D01*
X148199523Y-103191904D01*
X148199523Y-102382380D01*
X149199523Y-103382380D02*
X148628095Y-103382380D01*
X148913809Y-103382380D02*
X148913809Y-102382380D01*
X148818571Y-102525238D01*
X148723333Y-102620476D01*
X148628095Y-102668095D01*
D12*
X155152857Y-107872380D02*
X155224285Y-107896190D01*
X155343333Y-107896190D01*
X155390952Y-107872380D01*
X155414761Y-107848571D01*
X155438571Y-107800952D01*
X155438571Y-107753333D01*
X155414761Y-107705714D01*
X155390952Y-107681904D01*
X155343333Y-107658095D01*
X155248095Y-107634285D01*
X155200476Y-107610476D01*
X155176666Y-107586666D01*
X155152857Y-107539047D01*
X155152857Y-107491428D01*
X155176666Y-107443809D01*
X155200476Y-107420000D01*
X155248095Y-107396190D01*
X155367142Y-107396190D01*
X155438571Y-107420000D01*
X155652857Y-107896190D02*
X155652857Y-107396190D01*
X155771904Y-107396190D01*
X155843333Y-107420000D01*
X155890952Y-107467619D01*
X155914761Y-107515238D01*
X155938571Y-107610476D01*
X155938571Y-107681904D01*
X155914761Y-107777142D01*
X155890952Y-107824761D01*
X155843333Y-107872380D01*
X155771904Y-107896190D01*
X155652857Y-107896190D01*
X156129047Y-107753333D02*
X156367142Y-107753333D01*
X156081428Y-107896190D02*
X156248095Y-107396190D01*
X156414761Y-107896190D01*
X147739047Y-107480000D02*
X147691428Y-107456190D01*
X147620000Y-107456190D01*
X147548571Y-107480000D01*
X147500952Y-107527619D01*
X147477142Y-107575238D01*
X147453333Y-107670476D01*
X147453333Y-107741904D01*
X147477142Y-107837142D01*
X147500952Y-107884761D01*
X147548571Y-107932380D01*
X147620000Y-107956190D01*
X147667619Y-107956190D01*
X147739047Y-107932380D01*
X147762857Y-107908571D01*
X147762857Y-107741904D01*
X147667619Y-107741904D01*
X147977142Y-107956190D02*
X147977142Y-107456190D01*
X148262857Y-107956190D01*
X148262857Y-107456190D01*
X148500952Y-107956190D02*
X148500952Y-107456190D01*
X148620000Y-107456190D01*
X148691428Y-107480000D01*
X148739047Y-107527619D01*
X148762857Y-107575238D01*
X148786666Y-107670476D01*
X148786666Y-107741904D01*
X148762857Y-107837142D01*
X148739047Y-107884761D01*
X148691428Y-107932380D01*
X148620000Y-107956190D01*
X148500952Y-107956190D01*
X150023333Y-107426190D02*
X150190000Y-107926190D01*
X150356666Y-107426190D01*
X150523333Y-107926190D02*
X150523333Y-107426190D01*
X150642380Y-107426190D01*
X150713809Y-107450000D01*
X150761428Y-107497619D01*
X150785238Y-107545238D01*
X150809047Y-107640476D01*
X150809047Y-107711904D01*
X150785238Y-107807142D01*
X150761428Y-107854761D01*
X150713809Y-107902380D01*
X150642380Y-107926190D01*
X150523333Y-107926190D01*
X151023333Y-107926190D02*
X151023333Y-107426190D01*
X151142380Y-107426190D01*
X151213809Y-107450000D01*
X151261428Y-107497619D01*
X151285238Y-107545238D01*
X151309047Y-107640476D01*
X151309047Y-107711904D01*
X151285238Y-107807142D01*
X151261428Y-107854761D01*
X151213809Y-107902380D01*
X151142380Y-107926190D01*
X151023333Y-107926190D01*
X152724761Y-107862380D02*
X152796190Y-107886190D01*
X152915238Y-107886190D01*
X152962857Y-107862380D01*
X152986666Y-107838571D01*
X153010476Y-107790952D01*
X153010476Y-107743333D01*
X152986666Y-107695714D01*
X152962857Y-107671904D01*
X152915238Y-107648095D01*
X152820000Y-107624285D01*
X152772380Y-107600476D01*
X152748571Y-107576666D01*
X152724761Y-107529047D01*
X152724761Y-107481428D01*
X152748571Y-107433809D01*
X152772380Y-107410000D01*
X152820000Y-107386190D01*
X152939047Y-107386190D01*
X153010476Y-107410000D01*
X153510476Y-107838571D02*
X153486666Y-107862380D01*
X153415238Y-107886190D01*
X153367619Y-107886190D01*
X153296190Y-107862380D01*
X153248571Y-107814761D01*
X153224761Y-107767142D01*
X153200952Y-107671904D01*
X153200952Y-107600476D01*
X153224761Y-107505238D01*
X153248571Y-107457619D01*
X153296190Y-107410000D01*
X153367619Y-107386190D01*
X153415238Y-107386190D01*
X153486666Y-107410000D01*
X153510476Y-107433809D01*
X153962857Y-107886190D02*
X153724761Y-107886190D01*
X153724761Y-107386190D01*
%TD*%
M02*
