%TF.GenerationSoftware,KiCad,Pcbnew,(5.1.12)-1*%
%TF.CreationDate,2022-05-12T22:17:49+01:00*%
%TF.ProjectId,main_circuit,6d61696e-5f63-4697-9263-7569742e6b69,rev?*%
%TF.SameCoordinates,Original*%
%TF.FileFunction,Copper,L2,Bot*%
%TF.FilePolarity,Positive*%
%FSLAX46Y46*%
G04 Gerber Fmt 4.6, Leading zero omitted, Abs format (unit mm)*
G04 Created by KiCad (PCBNEW (5.1.12)-1) date 2022-05-12 22:17:49*
%MOMM*%
%LPD*%
G01*
G04 APERTURE LIST*
%TA.AperFunction,ComponentPad*%
%ADD10R,1.524000X1.524000*%
%TD*%
%TA.AperFunction,ComponentPad*%
%ADD11C,1.524000*%
%TD*%
%TA.AperFunction,ComponentPad*%
%ADD12R,1.600000X1.600000*%
%TD*%
%TA.AperFunction,ComponentPad*%
%ADD13O,1.600000X1.600000*%
%TD*%
%TA.AperFunction,ComponentPad*%
%ADD14C,1.600000*%
%TD*%
%TA.AperFunction,ComponentPad*%
%ADD15R,2.800000X2.800000*%
%TD*%
%TA.AperFunction,ComponentPad*%
%ADD16O,2.800000X2.800000*%
%TD*%
%TA.AperFunction,ComponentPad*%
%ADD17R,3.500000X3.500000*%
%TD*%
%TA.AperFunction,ComponentPad*%
%ADD18O,1.700000X1.700000*%
%TD*%
%TA.AperFunction,ComponentPad*%
%ADD19R,1.700000X1.700000*%
%TD*%
%TA.AperFunction,ViaPad*%
%ADD20C,0.800000*%
%TD*%
%TA.AperFunction,Conductor*%
%ADD21C,0.250000*%
%TD*%
G04 APERTURE END LIST*
D10*
%TO.P,3.3vDC1,1*%
%TO.N,Net-(3.3vDC1-Pad1)*%
X109750000Y-53250000D03*
D11*
%TO.P,3.3vDC1,2*%
%TO.N,/VCC_12vdc*%
X109750000Y-55790000D03*
%TO.P,3.3vDC1,3*%
%TO.N,/GND_dc*%
X109750000Y-58330000D03*
%TO.P,3.3vDC1,4*%
%TO.N,/VCC_3.3vdc*%
X109750000Y-60870000D03*
%TD*%
%TO.P,5vDC1,4*%
%TO.N,/VCC_5vdc*%
X135250000Y-41630000D03*
%TO.P,5vDC1,3*%
%TO.N,/GND_dc*%
X135250000Y-44170000D03*
%TO.P,5vDC1,2*%
%TO.N,/VCC_12vdc*%
X135250000Y-46710000D03*
D10*
%TO.P,5vDC1,1*%
%TO.N,Net-(5vDC1-Pad1)*%
X135250000Y-49250000D03*
%TD*%
D12*
%TO.P,A1,1*%
%TO.N,Net-(A1-Pad1)*%
X146750000Y-87500000D03*
D13*
%TO.P,A1,17*%
%TO.N,Net-(A1-Pad17)*%
X113730000Y-102740000D03*
%TO.P,A1,2*%
%TO.N,Net-(A1-Pad2)*%
X144210000Y-87500000D03*
%TO.P,A1,18*%
%TO.N,Net-(A1-Pad18)*%
X116270000Y-102740000D03*
%TO.P,A1,3*%
%TO.N,Net-(A1-Pad3)*%
X141670000Y-87500000D03*
%TO.P,A1,19*%
%TO.N,Net-(A1-Pad19)*%
X118810000Y-102740000D03*
%TO.P,A1,4*%
%TO.N,/GND_dc*%
X139130000Y-87500000D03*
%TO.P,A1,20*%
%TO.N,Net-(A1-Pad20)*%
X121350000Y-102740000D03*
%TO.P,A1,5*%
%TO.N,/LCUF_dt*%
X136590000Y-87500000D03*
%TO.P,A1,21*%
%TO.N,Net-(A1-Pad21)*%
X123890000Y-102740000D03*
%TO.P,A1,6*%
%TO.N,/LCUF_sck*%
X134050000Y-87500000D03*
%TO.P,A1,22*%
%TO.N,Net-(A1-Pad22)*%
X126430000Y-102740000D03*
%TO.P,A1,7*%
%TO.N,/LCVI_dt*%
X131510000Y-87500000D03*
%TO.P,A1,23*%
%TO.N,/MUX_sda*%
X128970000Y-102740000D03*
%TO.P,A1,8*%
%TO.N,/LCVI_sck*%
X128970000Y-87500000D03*
%TO.P,A1,24*%
%TO.N,/MUX_scl*%
X131510000Y-102740000D03*
%TO.P,A1,9*%
%TO.N,Net-(A1-Pad9)*%
X126430000Y-87500000D03*
%TO.P,A1,25*%
%TO.N,Net-(A1-Pad25)*%
X134050000Y-102740000D03*
%TO.P,A1,10*%
%TO.N,Net-(A1-Pad10)*%
X123890000Y-87500000D03*
%TO.P,A1,26*%
%TO.N,Net-(A1-Pad26)*%
X136590000Y-102740000D03*
%TO.P,A1,11*%
%TO.N,Net-(A1-Pad11)*%
X121350000Y-87500000D03*
%TO.P,A1,27*%
%TO.N,Net-(A1-Pad27)*%
X139130000Y-102740000D03*
%TO.P,A1,12*%
%TO.N,/MOT_pwm*%
X118810000Y-87500000D03*
%TO.P,A1,28*%
%TO.N,Net-(A1-Pad28)*%
X141670000Y-102740000D03*
%TO.P,A1,13*%
%TO.N,Net-(A1-Pad13)*%
X116270000Y-87500000D03*
%TO.P,A1,29*%
%TO.N,/GND_dc*%
X144210000Y-102740000D03*
%TO.P,A1,14*%
%TO.N,Net-(A1-Pad14)*%
X113730000Y-87500000D03*
%TO.P,A1,30*%
%TO.N,/VCC_5vdc*%
X146750000Y-102740000D03*
%TO.P,A1,15*%
%TO.N,Net-(A1-Pad15)*%
X111190000Y-87500000D03*
%TO.P,A1,16*%
%TO.N,Net-(A1-Pad16)*%
X111190000Y-102740000D03*
%TD*%
D12*
%TO.P,C1,1*%
%TO.N,/VCC_3.3vdc*%
X130750000Y-66750000D03*
D14*
%TO.P,C1,2*%
%TO.N,/GND_dc*%
X130750000Y-64250000D03*
%TD*%
D15*
%TO.P,D2,1*%
%TO.N,Net-(D2-Pad1)*%
X126250000Y-118750000D03*
D16*
%TO.P,D2,2*%
%TO.N,Net-(D2-Pad2)*%
X136410000Y-118750000D03*
%TD*%
D17*
%TO.P,J1,1*%
%TO.N,/VCC_12vdc*%
X118500000Y-69500000D03*
%TO.P,J1,2*%
%TO.N,/GND_dc*%
%TA.AperFunction,ComponentPad*%
G36*
G01*
X111000000Y-70500000D02*
X111000000Y-68500000D01*
G75*
G02*
X111750000Y-67750000I750000J0D01*
G01*
X113250000Y-67750000D01*
G75*
G02*
X114000000Y-68500000I0J-750000D01*
G01*
X114000000Y-70500000D01*
G75*
G02*
X113250000Y-71250000I-750000J0D01*
G01*
X111750000Y-71250000D01*
G75*
G02*
X111000000Y-70500000I0J750000D01*
G01*
G37*
%TD.AperFunction*%
%TO.P,J1,3*%
%TO.N,N/C*%
%TA.AperFunction,ComponentPad*%
G36*
G01*
X113750000Y-75075000D02*
X113750000Y-73325000D01*
G75*
G02*
X114625000Y-72450000I875000J0D01*
G01*
X116375000Y-72450000D01*
G75*
G02*
X117250000Y-73325000I0J-875000D01*
G01*
X117250000Y-75075000D01*
G75*
G02*
X116375000Y-75950000I-875000J0D01*
G01*
X114625000Y-75950000D01*
G75*
G02*
X113750000Y-75075000I0J875000D01*
G01*
G37*
%TD.AperFunction*%
%TD*%
D18*
%TO.P,MUX1,24*%
%TO.N,Net-(MUX1-Pad24)*%
X141470000Y-40810000D03*
%TO.P,MUX1,23*%
%TO.N,Net-(MUX1-Pad23)*%
X141470000Y-43350000D03*
%TO.P,MUX1,22*%
%TO.N,Net-(MUX1-Pad22)*%
X141470000Y-45890000D03*
%TO.P,MUX1,21*%
%TO.N,Net-(MUX1-Pad21)*%
X141470000Y-48430000D03*
%TO.P,MUX1,20*%
%TO.N,Net-(MUX1-Pad20)*%
X141470000Y-50970000D03*
%TO.P,MUX1,19*%
%TO.N,Net-(MUX1-Pad19)*%
X141470000Y-53510000D03*
%TO.P,MUX1,18*%
%TO.N,Net-(MUX1-Pad18)*%
X141470000Y-56050000D03*
%TO.P,MUX1,17*%
%TO.N,Net-(MUX1-Pad17)*%
X141470000Y-58590000D03*
%TO.P,MUX1,16*%
%TO.N,Net-(MUX1-Pad16)*%
X141470000Y-61130000D03*
%TO.P,MUX1,15*%
%TO.N,Net-(MUX1-Pad15)*%
X141470000Y-63670000D03*
%TO.P,MUX1,14*%
%TO.N,Net-(MUX1-Pad14)*%
X141470000Y-66210000D03*
%TO.P,MUX1,13*%
%TO.N,Net-(MUX1-Pad13)*%
X141470000Y-68750000D03*
%TO.P,MUX1,12*%
%TO.N,Net-(MUX1-Pad12)*%
X159250000Y-40810000D03*
%TO.P,MUX1,11*%
%TO.N,Net-(MUX1-Pad11)*%
X159250000Y-43350000D03*
%TO.P,MUX1,10*%
%TO.N,Net-(MUX1-Pad10)*%
X159250000Y-45890000D03*
%TO.P,MUX1,9*%
%TO.N,Net-(MUX1-Pad9)*%
X159250000Y-48430000D03*
%TO.P,MUX1,8*%
%TO.N,/GND_dc*%
X159250000Y-50970000D03*
%TO.P,MUX1,7*%
X159250000Y-53510000D03*
%TO.P,MUX1,6*%
X159250000Y-56050000D03*
%TO.P,MUX1,5*%
%TO.N,Net-(MUX1-Pad5)*%
X159250000Y-58590000D03*
%TO.P,MUX1,4*%
%TO.N,/MUX_scl*%
X159250000Y-61130000D03*
%TO.P,MUX1,3*%
%TO.N,/MUX_sda*%
X159250000Y-63670000D03*
%TO.P,MUX1,2*%
%TO.N,/GND_dc*%
X159250000Y-66210000D03*
D19*
%TO.P,MUX1,1*%
%TO.N,/VCC_3.3vdc*%
X159250000Y-68750000D03*
%TD*%
D11*
%TO.P,Pabd1,4*%
%TO.N,Net-(MUX1-Pad11)*%
X171000000Y-49910000D03*
%TO.P,Pabd1,3*%
%TO.N,Net-(MUX1-Pad12)*%
X171000000Y-47370000D03*
%TO.P,Pabd1,2*%
%TO.N,/VCC_3.3vdc*%
X171000000Y-44830000D03*
D10*
%TO.P,Pabd1,1*%
%TO.N,/GND_dc*%
X171000000Y-42290000D03*
%TD*%
%TO.P,Pblad1,1*%
%TO.N,/GND_dc*%
X171000000Y-56290000D03*
D11*
%TO.P,Pblad1,2*%
%TO.N,/VCC_3.3vdc*%
X171000000Y-58830000D03*
%TO.P,Pblad1,3*%
%TO.N,Net-(MUX1-Pad10)*%
X171000000Y-61370000D03*
%TO.P,Pblad1,4*%
%TO.N,Net-(MUX1-Pad9)*%
X171000000Y-63910000D03*
%TD*%
D19*
%TO.P,Q1,1*%
%TO.N,Net-(Q1-Pad1)*%
X142750000Y-111500000D03*
D18*
%TO.P,Q1,2*%
%TO.N,Net-(D2-Pad2)*%
X142750000Y-114040000D03*
%TO.P,Q1,3*%
%TO.N,Net-(D2-Pad1)*%
X142750000Y-116580000D03*
%TD*%
D14*
%TO.P,R1,1*%
%TO.N,Net-(Q1-Pad1)*%
X135500000Y-111500000D03*
D13*
%TO.P,R1,2*%
%TO.N,/MOT_pwm*%
X127880000Y-111500000D03*
%TD*%
D14*
%TO.P,R2,1*%
%TO.N,/VCC_3.3vdc*%
X151000000Y-80500000D03*
D13*
%TO.P,R2,2*%
%TO.N,/MUX_scl*%
X151000000Y-72880000D03*
%TD*%
D14*
%TO.P,R3,1*%
%TO.N,/VCC_3.3vdc*%
X155750000Y-80620000D03*
D13*
%TO.P,R3,2*%
%TO.N,/MUX_sda*%
X155750000Y-73000000D03*
%TD*%
%TO.P,R4,2*%
%TO.N,Net-(MUX1-Pad9)*%
X160500000Y-73000000D03*
D14*
%TO.P,R4,1*%
%TO.N,/VCC_3.3vdc*%
X160500000Y-80620000D03*
%TD*%
%TO.P,R5,1*%
%TO.N,/VCC_3.3vdc*%
X165250000Y-80620000D03*
D13*
%TO.P,R5,2*%
%TO.N,Net-(MUX1-Pad10)*%
X165250000Y-73000000D03*
%TD*%
%TO.P,R6,2*%
%TO.N,Net-(MUX1-Pad11)*%
X170000000Y-73130000D03*
D14*
%TO.P,R6,1*%
%TO.N,/VCC_3.3vdc*%
X170000000Y-80750000D03*
%TD*%
D13*
%TO.P,R7,2*%
%TO.N,Net-(MUX1-Pad12)*%
X174750000Y-73130000D03*
D14*
%TO.P,R7,1*%
%TO.N,/VCC_3.3vdc*%
X174750000Y-80750000D03*
%TD*%
D19*
%TO.P,SW1,1*%
%TO.N,/GND_dc*%
X111250000Y-116500000D03*
D18*
%TO.P,SW1,2*%
%TO.N,Net-(D2-Pad1)*%
X113790000Y-116500000D03*
%TD*%
D10*
%TO.P,U1,1*%
%TO.N,/GND_dc*%
X171000000Y-88040000D03*
D11*
%TO.P,U1,2*%
%TO.N,/LCUF_dt*%
X171000000Y-90580000D03*
%TO.P,U1,3*%
%TO.N,/LCUF_sck*%
X171000000Y-93120000D03*
%TO.P,U1,4*%
%TO.N,/VCC_5vdc*%
X171000000Y-95660000D03*
%TD*%
%TO.P,U2,4*%
%TO.N,/VCC_5vdc*%
X171000000Y-110910000D03*
%TO.P,U2,3*%
%TO.N,/LCVI_sck*%
X171000000Y-108370000D03*
%TO.P,U2,2*%
%TO.N,/LCVI_dt*%
X171000000Y-105830000D03*
D10*
%TO.P,U2,1*%
%TO.N,/GND_dc*%
X171000000Y-103290000D03*
%TD*%
D19*
%TO.P,Motor1,1*%
%TO.N,/VCC_12vdc*%
X171000000Y-117250000D03*
D18*
%TO.P,Motor1,2*%
%TO.N,Net-(D2-Pad2)*%
X171000000Y-119790000D03*
%TD*%
D20*
%TO.N,/GND_dc*%
X132500000Y-92750000D03*
%TO.N,/VCC_3.3vdc*%
X127250000Y-66750000D03*
%TO.N,/VCC_5vdc*%
X127500000Y-54750000D03*
%TO.N,/MUX_sda*%
X132200002Y-76250000D03*
%TD*%
D21*
%TO.N,/VCC_12vdc*%
X162750000Y-122000000D02*
X167500000Y-117250000D01*
X107750000Y-87250000D02*
X107750000Y-118250000D01*
X107750000Y-118250000D02*
X111500000Y-122000000D01*
X113250000Y-82250000D02*
X112750000Y-82250000D01*
X112750000Y-82250000D02*
X107750000Y-87250000D01*
X121250000Y-74250000D02*
X113250000Y-82250000D01*
X167500000Y-117250000D02*
X171000000Y-117250000D01*
X111500000Y-122000000D02*
X162750000Y-122000000D01*
X118500000Y-71500000D02*
X121250000Y-74250000D01*
X118500000Y-69500000D02*
X118500000Y-71500000D01*
%TO.N,/GND_dc*%
X109750000Y-58330000D02*
X122080000Y-58330000D01*
X128000000Y-64250000D02*
X130750000Y-64250000D01*
X122080000Y-58330000D02*
X128000000Y-64250000D01*
X132500000Y-92750000D02*
X132500000Y-94000000D01*
X132500000Y-94000000D02*
X139250000Y-100750000D01*
X142220000Y-100750000D02*
X144210000Y-102740000D01*
X139250000Y-100750000D02*
X142220000Y-100750000D01*
%TO.N,/VCC_3.3vdc*%
X109750000Y-60870000D02*
X121370000Y-60870000D01*
X127250000Y-66750000D02*
X127250000Y-66750000D01*
X121370000Y-60870000D02*
X127250000Y-66750000D01*
X127250000Y-66750000D02*
X130750000Y-66750000D01*
%TO.N,/VCC_5vdc*%
X135250000Y-41630000D02*
X127500000Y-49380000D01*
X127500000Y-49380000D02*
X127500000Y-54750000D01*
X127500000Y-54750000D02*
X127500000Y-54750000D01*
X127500000Y-54750000D02*
X127500000Y-54750000D01*
%TO.N,/LCUF_dt*%
X166830000Y-94750000D02*
X171000000Y-90580000D01*
X143840000Y-94750000D02*
X166830000Y-94750000D01*
X136590000Y-87500000D02*
X143840000Y-94750000D01*
%TO.N,/LCUF_sck*%
X134050000Y-87500000D02*
X143050000Y-96500000D01*
X167620000Y-96500000D02*
X171000000Y-93120000D01*
X143050000Y-96500000D02*
X167620000Y-96500000D01*
%TO.N,/LCVI_dt*%
X131510000Y-87500000D02*
X141760000Y-97750000D01*
X141760000Y-97750000D02*
X151500000Y-97750000D01*
X151500000Y-97750000D02*
X159500000Y-105750000D01*
X170920000Y-105750000D02*
X171000000Y-105830000D01*
X159500000Y-105750000D02*
X170920000Y-105750000D01*
%TO.N,/MUX_sda*%
X155750000Y-67170000D02*
X159250000Y-63670000D01*
X155750000Y-73000000D02*
X155750000Y-67170000D01*
X128970000Y-102740000D02*
X128970000Y-97220000D01*
X122475001Y-90725001D02*
X122475001Y-85975001D01*
X128970000Y-97220000D02*
X122475001Y-90725001D01*
X122475001Y-85975001D02*
X132200002Y-76250000D01*
X132200002Y-76250000D02*
X132000000Y-76250000D01*
X132200002Y-76250000D02*
X132200002Y-76250000D01*
%TO.N,/LCVI_sck*%
X171000000Y-108370000D02*
X159370000Y-108370000D01*
X159370000Y-108370000D02*
X150500000Y-99500000D01*
X140970000Y-99500000D02*
X128970000Y-87500000D01*
X150500000Y-99500000D02*
X140970000Y-99500000D01*
%TO.N,/MUX_scl*%
X151000000Y-69380000D02*
X151000000Y-72880000D01*
X159250000Y-61130000D02*
X151000000Y-69380000D01*
X131510000Y-102740000D02*
X131510000Y-94490000D01*
X131510000Y-94490000D02*
X127750000Y-90730000D01*
X127750000Y-90730000D02*
X127750000Y-83750000D01*
X127750000Y-83750000D02*
X131750000Y-79750000D01*
X131750000Y-79750000D02*
X131750000Y-79750000D01*
X144130000Y-79750000D02*
X151000000Y-72880000D01*
X131750000Y-79750000D02*
X144130000Y-79750000D01*
%TO.N,/MOT_pwm*%
X125015001Y-108635001D02*
X125015001Y-99765001D01*
X127880000Y-111500000D02*
X125015001Y-108635001D01*
X118810000Y-93560000D02*
X118810000Y-87500000D01*
X125015001Y-99765001D02*
X118810000Y-93560000D01*
%TO.N,Net-(MUX1-Pad12)*%
X171000000Y-47370000D02*
X172120000Y-47370000D01*
X174750000Y-50000000D02*
X174750000Y-73130000D01*
X172120000Y-47370000D02*
X174750000Y-50000000D01*
%TO.N,Net-(MUX1-Pad11)*%
X171000000Y-49910000D02*
X173500000Y-52410000D01*
X173500000Y-68750000D02*
X173000000Y-69250000D01*
X173500000Y-52410000D02*
X173500000Y-68750000D01*
X173000000Y-70130000D02*
X170000000Y-73130000D01*
X173000000Y-69250000D02*
X173000000Y-70130000D01*
%TO.N,Net-(MUX1-Pad10)*%
X171000000Y-61370000D02*
X172130000Y-62500000D01*
X172130000Y-62500000D02*
X172130000Y-67880000D01*
X167010000Y-73000000D02*
X165250000Y-73000000D01*
X172130000Y-67880000D02*
X167010000Y-73000000D01*
%TO.N,Net-(MUX1-Pad9)*%
X171000000Y-63910000D02*
X171000000Y-65750000D01*
X167750000Y-65750000D02*
X160500000Y-73000000D01*
X171000000Y-65750000D02*
X167750000Y-65750000D01*
%TO.N,Net-(D2-Pad2)*%
X141120000Y-114040000D02*
X142750000Y-114040000D01*
X136410000Y-118750000D02*
X141120000Y-114040000D01*
%TD*%
M02*
