%TF.GenerationSoftware,KiCad,Pcbnew,(5.1.12)-1*%
%TF.CreationDate,2022-05-12T22:17:49+01:00*%
%TF.ProjectId,main_circuit,6d61696e-5f63-4697-9263-7569742e6b69,rev?*%
%TF.SameCoordinates,Original*%
%TF.FileFunction,Soldermask,Bot*%
%TF.FilePolarity,Negative*%
%FSLAX46Y46*%
G04 Gerber Fmt 4.6, Leading zero omitted, Abs format (unit mm)*
G04 Created by KiCad (PCBNEW (5.1.12)-1) date 2022-05-12 22:17:49*
%MOMM*%
%LPD*%
G01*
G04 APERTURE LIST*
%ADD10C,6.400000*%
%ADD11R,1.524000X1.524000*%
%ADD12C,1.524000*%
%ADD13R,1.600000X1.600000*%
%ADD14O,1.600000X1.600000*%
%ADD15C,1.600000*%
%ADD16R,2.800000X2.800000*%
%ADD17O,2.800000X2.800000*%
%ADD18R,3.500000X3.500000*%
%ADD19O,1.700000X1.700000*%
%ADD20R,1.700000X1.700000*%
G04 APERTURE END LIST*
D10*
%TO.C,H4*%
X181000000Y-123000000D03*
%TD*%
%TO.C,H3*%
X181000000Y-40000000D03*
%TD*%
%TO.C,H2*%
X100000000Y-122000000D03*
%TD*%
%TO.C,H1*%
X101000000Y-41000000D03*
%TD*%
D11*
%TO.C,3.3vDC1*%
X109750000Y-53250000D03*
D12*
X109750000Y-55790000D03*
X109750000Y-58330000D03*
X109750000Y-60870000D03*
%TD*%
%TO.C,5vDC1*%
X135250000Y-41630000D03*
X135250000Y-44170000D03*
X135250000Y-46710000D03*
D11*
X135250000Y-49250000D03*
%TD*%
D13*
%TO.C,A1*%
X146750000Y-87500000D03*
D14*
X113730000Y-102740000D03*
X144210000Y-87500000D03*
X116270000Y-102740000D03*
X141670000Y-87500000D03*
X118810000Y-102740000D03*
X139130000Y-87500000D03*
X121350000Y-102740000D03*
X136590000Y-87500000D03*
X123890000Y-102740000D03*
X134050000Y-87500000D03*
X126430000Y-102740000D03*
X131510000Y-87500000D03*
X128970000Y-102740000D03*
X128970000Y-87500000D03*
X131510000Y-102740000D03*
X126430000Y-87500000D03*
X134050000Y-102740000D03*
X123890000Y-87500000D03*
X136590000Y-102740000D03*
X121350000Y-87500000D03*
X139130000Y-102740000D03*
X118810000Y-87500000D03*
X141670000Y-102740000D03*
X116270000Y-87500000D03*
X144210000Y-102740000D03*
X113730000Y-87500000D03*
X146750000Y-102740000D03*
X111190000Y-87500000D03*
X111190000Y-102740000D03*
%TD*%
D13*
%TO.C,C1*%
X130750000Y-66750000D03*
D15*
X130750000Y-64250000D03*
%TD*%
D16*
%TO.C,D2*%
X126250000Y-118750000D03*
D17*
X136410000Y-118750000D03*
%TD*%
D18*
%TO.C,J1*%
X118500000Y-69500000D03*
G36*
G01*
X111000000Y-70500000D02*
X111000000Y-68500000D01*
G75*
G02*
X111750000Y-67750000I750000J0D01*
G01*
X113250000Y-67750000D01*
G75*
G02*
X114000000Y-68500000I0J-750000D01*
G01*
X114000000Y-70500000D01*
G75*
G02*
X113250000Y-71250000I-750000J0D01*
G01*
X111750000Y-71250000D01*
G75*
G02*
X111000000Y-70500000I0J750000D01*
G01*
G37*
G36*
G01*
X113750000Y-75075000D02*
X113750000Y-73325000D01*
G75*
G02*
X114625000Y-72450000I875000J0D01*
G01*
X116375000Y-72450000D01*
G75*
G02*
X117250000Y-73325000I0J-875000D01*
G01*
X117250000Y-75075000D01*
G75*
G02*
X116375000Y-75950000I-875000J0D01*
G01*
X114625000Y-75950000D01*
G75*
G02*
X113750000Y-75075000I0J875000D01*
G01*
G37*
%TD*%
D19*
%TO.C,MUX1*%
X141470000Y-40810000D03*
X141470000Y-43350000D03*
X141470000Y-45890000D03*
X141470000Y-48430000D03*
X141470000Y-50970000D03*
X141470000Y-53510000D03*
X141470000Y-56050000D03*
X141470000Y-58590000D03*
X141470000Y-61130000D03*
X141470000Y-63670000D03*
X141470000Y-66210000D03*
X141470000Y-68750000D03*
X159250000Y-40810000D03*
X159250000Y-43350000D03*
X159250000Y-45890000D03*
X159250000Y-48430000D03*
X159250000Y-50970000D03*
X159250000Y-53510000D03*
X159250000Y-56050000D03*
X159250000Y-58590000D03*
X159250000Y-61130000D03*
X159250000Y-63670000D03*
X159250000Y-66210000D03*
D20*
X159250000Y-68750000D03*
%TD*%
D12*
%TO.C,Pabd1*%
X171000000Y-49910000D03*
X171000000Y-47370000D03*
X171000000Y-44830000D03*
D11*
X171000000Y-42290000D03*
%TD*%
%TO.C,Pblad1*%
X171000000Y-56290000D03*
D12*
X171000000Y-58830000D03*
X171000000Y-61370000D03*
X171000000Y-63910000D03*
%TD*%
D20*
%TO.C,Q1*%
X142750000Y-111500000D03*
D19*
X142750000Y-114040000D03*
X142750000Y-116580000D03*
%TD*%
D15*
%TO.C,R1*%
X135500000Y-111500000D03*
D14*
X127880000Y-111500000D03*
%TD*%
D15*
%TO.C,R2*%
X151000000Y-80500000D03*
D14*
X151000000Y-72880000D03*
%TD*%
D15*
%TO.C,R3*%
X155750000Y-80620000D03*
D14*
X155750000Y-73000000D03*
%TD*%
%TO.C,R4*%
X160500000Y-73000000D03*
D15*
X160500000Y-80620000D03*
%TD*%
%TO.C,R5*%
X165250000Y-80620000D03*
D14*
X165250000Y-73000000D03*
%TD*%
%TO.C,R6*%
X170000000Y-73130000D03*
D15*
X170000000Y-80750000D03*
%TD*%
D14*
%TO.C,R7*%
X174750000Y-73130000D03*
D15*
X174750000Y-80750000D03*
%TD*%
D20*
%TO.C,SW1*%
X111250000Y-116500000D03*
D19*
X113790000Y-116500000D03*
%TD*%
D11*
%TO.C,U1*%
X171000000Y-88040000D03*
D12*
X171000000Y-90580000D03*
X171000000Y-93120000D03*
X171000000Y-95660000D03*
%TD*%
%TO.C,U2*%
X171000000Y-110910000D03*
X171000000Y-108370000D03*
X171000000Y-105830000D03*
D11*
X171000000Y-103290000D03*
%TD*%
D20*
%TO.C,Motor1*%
X171000000Y-117250000D03*
D19*
X171000000Y-119790000D03*
%TD*%
M02*
