M48
; DRILL file {KiCad (5.1.12)-1} date 05/12/22 22:17:59
; FORMAT={-:-/ absolute / inch / decimal}
; #@! TF.CreationDate,2022-05-12T22:17:59+01:00
; #@! TF.GenerationSoftware,Kicad,Pcbnew,(5.1.12)-1
; #@! TF.FileFunction,Plated,1,2,PTH
FMAT,2
INCH
T1C0.0157
T2C0.0300
T3C0.0315
T4C0.0394
T5C0.0551
%
G90
G05
T1
X5.0098Y-2.628
X5.0197Y-2.1555
X5.2047Y-3.002
X5.2165Y-3.6516
T2
X4.3209Y-2.0965
X4.3209Y-2.1965
X4.3209Y-2.2965
X4.3209Y-2.3965
X5.3248Y-1.639
X5.3248Y-1.739
X5.3248Y-1.839
X5.3248Y-1.939
X6.7323Y-1.665
X6.7323Y-1.765
X6.7323Y-1.865
X6.7323Y-1.965
X6.7323Y-2.2161
X6.7323Y-2.3161
X6.7323Y-2.4161
X6.7323Y-2.5161
X6.7323Y-3.4661
X6.7323Y-3.5661
X6.7323Y-3.6661
X6.7323Y-3.7661
X6.7323Y-4.0665
X6.7323Y-4.1665
X6.7323Y-4.2665
X6.7323Y-4.3665
T3
X5.0346Y-4.3898
X5.1476Y-2.5295
X5.1476Y-2.628
X5.3346Y-4.3898
X5.9449Y-2.8693
X5.9449Y-3.1693
X6.1319Y-2.874
X6.1319Y-3.174
X6.3189Y-2.874
X6.3189Y-3.174
X6.5059Y-2.874
X6.5059Y-3.174
X6.6929Y-2.8791
X6.6929Y-3.1791
X6.8799Y-2.8791
X6.8799Y-3.1791
T4
X4.3776Y-3.4449
X4.3776Y-4.0449
X4.3799Y-4.5866
X4.4776Y-3.4449
X4.4776Y-4.0449
X4.4799Y-4.5866
X4.5776Y-3.4449
X4.5776Y-4.0449
X4.6776Y-3.4449
X4.6776Y-4.0449
X4.7776Y-3.4449
X4.7776Y-4.0449
X4.8776Y-3.4449
X4.8776Y-4.0449
X4.9776Y-3.4449
X4.9776Y-4.0449
X5.0776Y-3.4449
X5.0776Y-4.0449
X5.1776Y-3.4449
X5.1776Y-4.0449
X5.2776Y-3.4449
X5.2776Y-4.0449
X5.3776Y-3.4449
X5.3776Y-4.0449
X5.4776Y-3.4449
X5.4776Y-4.0449
X5.5697Y-1.6067
X5.5697Y-1.7067
X5.5697Y-1.8067
X5.5697Y-1.9067
X5.5697Y-2.0067
X5.5697Y-2.1067
X5.5697Y-2.2067
X5.5697Y-2.3067
X5.5697Y-2.4067
X5.5697Y-2.5067
X5.5697Y-2.6067
X5.5697Y-2.7067
X5.5776Y-3.4449
X5.5776Y-4.0449
X5.6201Y-4.3898
X5.6201Y-4.4898
X5.6201Y-4.5898
X5.6776Y-3.4449
X5.6776Y-4.0449
X5.7776Y-3.4449
X5.7776Y-4.0449
X6.2697Y-1.6067
X6.2697Y-1.7067
X6.2697Y-1.8067
X6.2697Y-1.9067
X6.2697Y-2.0067
X6.2697Y-2.1067
X6.2697Y-2.2067
X6.2697Y-2.3067
X6.2697Y-2.4067
X6.2697Y-2.5067
X6.2697Y-2.6067
X6.2697Y-2.7067
X6.7323Y-4.6161
X6.7323Y-4.7161
T5
X4.9705Y-4.6752
X5.3705Y-4.6752
T4
G00X4.4291Y-2.6969
M15
G01X4.4291Y-2.7756
M16
G05
G00X4.5079Y-2.9213
M15
G01X4.5866Y-2.9213
M16
G05
G00X4.6654Y-2.6969
M15
G01X4.6654Y-2.7756
M16
G05
T0
M30
